<?xml version="1.0" encoding="utf-8"?>
<!-- Generator: Adobe Illustrator 17.0.0, SVG Export Plug-In . SVG Version: 6.00 Build 0)  -->
<!DOCTYPE svg PUBLIC "-//W3C//DTD SVG 1.1//EN" "http://www.w3.org/Graphics/SVG/1.1/DTD/svg11.dtd">
<svg version="1.1" id="Capa_1" xmlns="http://www.w3.org/2000/svg" xmlns:xlink="http://www.w3.org/1999/xlink" x="0px" y="0px"
	 width="34.487px" height="34.48px" viewBox="246.967 246.969 34.487 34.48" enable-background="new 246.967 246.969 34.487 34.48"
	 xml:space="preserve">
<g>
	<g>
		<g>
			<path fill="#2E94AD" d="M277.552,246.969h-26.688c-2.152,0-3.896,1.744-3.896,3.896v26.695c0,2.145,1.744,3.889,3.896,3.889
				h26.695c2.145,0,3.896-1.744,3.896-3.896v-26.688C281.448,248.714,279.703,246.969,277.552,246.969z M280.341,277.554h-0.007
				c0,1.534-1.249,2.783-2.783,2.783h-26.688c-1.534,0-2.783-1.249-2.783-2.783v-26.688c0-1.534,1.249-2.783,2.783-2.783h26.695
				c1.534,0,2.783,1.249,2.783,2.783V277.554L280.341,277.554z"/>
		</g>
	</g>
	<g>
		<g>
			<path fill="#2E94AD" d="M250.863,250.865v26.688h26.695v-26.688H250.863z M276.445,263.653h-1.67v1.113h1.67v11.681h-11.681
				v-1.67h-1.113v1.67H251.97v-11.681h1.67v-1.113h-1.67v-11.681h11.681v1.67h1.113v-1.67h11.681V263.653L276.445,263.653z"/>
		</g>
	</g>
	<g>
		<g>
			<path fill="#2E94AD" d="M264.764,262.065v-6.754h-1.113v6.754c-0.781,0.204-1.385,0.814-1.588,1.588h-3.971v1.113h3.971
				c0.251,0.957,1.113,1.67,2.145,1.67c1.229,0,2.226-0.998,2.226-2.226C266.434,263.178,265.721,262.316,264.764,262.065z
				 M264.208,265.323c-0.611,0-1.113-0.495-1.113-1.113c0-0.611,0.502-1.113,1.113-1.113c0.611,0,1.113,0.495,1.113,1.113
				C265.321,264.82,264.825,265.323,264.208,265.323z"/>
		</g>
	</g>
	<g>
		<g>
			<rect x="263.651" y="269.212" fill="#2E94AD" width="1.113" height="1.113"/>
		</g>
	</g>
	<g>
		<g>
			<rect x="265.877" y="269.212" fill="#2E94AD" width="1.113" height="1.113"/>
		</g>
	</g>
	<g>
		<g>
			<rect x="261.425" y="269.212" fill="#2E94AD" width="1.113" height="1.113"/>
		</g>
	</g>
</g>
</svg>
