<?xml version="1.0" encoding="utf-8"?>
<!-- Generator: Adobe Illustrator 17.0.0, SVG Export Plug-In . SVG Version: 6.00 Build 0)  -->
<!DOCTYPE svg PUBLIC "-//W3C//DTD SVG 1.1//EN" "http://www.w3.org/Graphics/SVG/1.1/DTD/svg11.dtd">
<svg version="1.1" id="Capa_1" xmlns="http://www.w3.org/2000/svg" xmlns:xlink="http://www.w3.org/1999/xlink" x="0px" y="0px"
	 width="19px" height="19px" viewBox="246.5 246.5 19 19" enable-background="new 246.5 246.5 19 19" xml:space="preserve">
<g>
	<path fill="#2E94AD" d="M256,246.5c-5.238,0-9.5,4.262-9.5,9.5c0,5.238,4.262,9.5,9.5,9.5c5.238,0,9.5-4.262,9.5-9.5
		C265.5,250.762,261.238,246.5,256,246.5z M256,264.313c-4.584,0-8.313-3.729-8.313-8.313c0-4.584,3.729-8.313,8.313-8.313
		c4.584,0,8.313,3.729,8.313,8.313C264.313,260.584,260.584,264.313,256,264.313L256,264.313z"/>
	<path fill="#2E94AD" d="M256.594,250.063h-1.188v6.183l3.736,3.736l0.84-0.84l-3.389-3.389V250.063z"/>
</g>
</svg>
