<?xml version="1.0" encoding="utf-8"?>
<!-- Generator: Adobe Illustrator 17.0.0, SVG Export Plug-In . SVG Version: 6.00 Build 0)  -->
<!DOCTYPE svg PUBLIC "-//W3C//DTD SVG 1.1//EN" "http://www.w3.org/Graphics/SVG/1.1/DTD/svg11.dtd">
<svg version="1.1" id="Capa_1" xmlns="http://www.w3.org/2000/svg" xmlns:xlink="http://www.w3.org/1999/xlink" x="0px" y="0px"
	 width="39.513px" height="37.535px" viewBox="244.342 244.925 39.513 37.535"
	 enable-background="new 244.342 244.925 39.513 37.535" xml:space="preserve">
<g>
	<g>
		<g>
			<g>
				<path fill="#2E94AD" d="M282.175,244.925h-27.6c-0.927,0.001-1.679,0.752-1.68,1.68v7.613l-1.262-1.893
					c-0.578-0.871-1.74-1.133-2.635-0.593l-2.597,1.561c-0.85,0.499-1.474,1.308-1.74,2.257c-0.947,3.449-0.244,9.391,8.478,18.115
					c6.936,6.929,12.108,8.795,15.672,8.795c0.825,0.004,1.647-0.103,2.444-0.319c0.949-0.266,1.758-0.889,2.258-1.738l1.559-2.599
					c0.538-0.895,0.277-2.054-0.593-2.632l-6.218-4.145c-0.853-0.564-1.996-0.379-2.627,0.426l-1.81,2.327
					c-0.189,0.249-0.532,0.322-0.806,0.171l-0.345-0.19c-1.134-0.618-2.545-1.387-5.394-4.237c-0.308-0.308-0.588-0.597-0.85-0.873
					h25.745c0.925,0.001,1.676-0.747,1.68-1.672v-20.375C283.854,245.677,283.102,244.926,282.175,244.925z M262.043,274.918
					l0.335,0.184c0.841,0.47,1.9,0.252,2.487-0.512l1.81-2.327c0.206-0.262,0.578-0.323,0.856-0.139l6.218,4.145
					c0.282,0.188,0.367,0.565,0.193,0.856l-1.559,2.599c-0.326,0.558-0.855,0.969-1.476,1.146c-3.114,0.856-8.563,0.132-16.834-8.14
					c-8.271-8.272-8.993-13.72-8.138-16.832c0.177-0.621,0.587-1.15,1.145-1.476l2.599-1.56c0.291-0.174,0.668-0.089,0.856,0.193
					l4.147,6.218c0.184,0.278,0.123,0.651-0.139,0.856l-2.328,1.811c-0.764,0.586-0.983,1.645-0.512,2.486l0.184,0.335
					c0.659,1.208,1.477,2.711,4.462,5.695C259.333,273.44,260.836,274.259,262.043,274.918z M282.537,266.98
					c-0.002,0.198-0.164,0.357-0.362,0.356h-26.934c-0.856-0.978-1.593-2.054-2.198-3.204l-0.19-0.346
					c-0.151-0.273-0.079-0.616,0.17-0.805l2.328-1.811c0.805-0.631,0.991-1.774,0.426-2.627l-1.565-2.349v-9.59
					c-0.001-0.096,0.037-0.189,0.105-0.257c0.068-0.068,0.161-0.106,0.257-0.105h27.6c0.096-0.001,0.189,0.037,0.257,0.105
					c0.068,0.068,0.106,0.161,0.105,0.257L282.537,266.98L282.537,266.98z"/>
				<path fill="#2E94AD" d="M279.906,247.975l-11.009,8.349c-0.311,0.226-0.733,0.226-1.045,0l-11.005-8.349
					c-0.29-0.22-0.703-0.163-0.923,0.127c-0.22,0.29-0.163,0.703,0.127,0.923l11.006,8.349c0.783,0.578,1.852,0.578,2.635,0
					l11.01-8.349c0.139-0.106,0.231-0.262,0.255-0.436c0.024-0.173-0.022-0.349-0.128-0.488
					C280.609,247.812,280.196,247.755,279.906,247.975z"/>
				<path fill="#2E94AD" d="M262.753,257.429l-6.748,7.226c-0.248,0.266-0.234,0.683,0.033,0.931
					c0.266,0.248,0.683,0.233,0.931-0.033l6.748-7.229c0.223-0.269,0.197-0.665-0.059-0.903
					C263.402,257.183,263.005,257.186,262.753,257.429z"/>
				<path fill="#2E94AD" d="M274.04,257.429c-0.248-0.266-0.665-0.281-0.931-0.033c-0.266,0.248-0.281,0.665-0.033,0.931
					l6.746,7.226c0.248,0.266,0.665,0.281,0.931,0.033c0.266-0.248,0.281-0.665,0.033-0.931L274.04,257.429z"/>
			</g>
		</g>
	</g>
</g>
</svg>
