<?xml version="1.0" encoding="utf-8"?>
<!-- Generator: Adobe Illustrator 23.0.1, SVG Export Plug-In . SVG Version: 6.00 Build 0)  -->
<svg version="1.1" id="Layer_1" xmlns="http://www.w3.org/2000/svg" xmlns:xlink="http://www.w3.org/1999/xlink" x="0px" y="0px"
	 viewBox="0 0 463.1 469.3" style="enable-background:new 0 0 463.1 469.3;" xml:space="preserve">
<style type="text/css">
	.st0{fill:#BBBBBB;}
</style>
<g>
	<path class="st0" d="M0,1.1C0,0.5,0.5,0,1.1,0s1.1,0.5,1.1,1.1c0,0.6-0.4,1.1-1.1,1.1C0.4,2.3,0,1.8,0,1.1z"/>
</g>
<g>
	<path class="st0" d="M28,1.1C28,0.5,28.5,0,29.1,0s1.1,0.5,1.1,1.1c0,0.6-0.4,1.1-1.1,1.1C28.4,2.3,28,1.8,28,1.1z"/>
</g>
<g>
	<path class="st0" d="M57,1.1C57,0.5,57.5,0,58.1,0s1.1,0.5,1.1,1.1c0,0.6-0.4,1.1-1.1,1.1C57.4,2.3,57,1.8,57,1.1z"/>
</g>
<g>
	<path class="st0" d="M85,1.1C85,0.5,85.5,0,86.1,0s1.1,0.5,1.1,1.1c0,0.6-0.4,1.1-1.1,1.1C85.4,2.3,85,1.8,85,1.1z"/>
</g>
<g>
	<path class="st0" d="M115,1.1c0-0.7,0.5-1.1,1.1-1.1s1.1,0.5,1.1,1.1c0,0.6-0.4,1.1-1.1,1.1C115.4,2.3,115,1.8,115,1.1z"/>
</g>
<g>
	<path class="st0" d="M143,1.1c0-0.7,0.5-1.1,1.1-1.1s1.1,0.5,1.1,1.1c0,0.6-0.4,1.1-1.1,1.1C143.4,2.3,143,1.8,143,1.1z"/>
</g>
<g>
	<path class="st0" d="M172,1.1c0-0.7,0.5-1.1,1.1-1.1s1.1,0.5,1.1,1.1c0,0.6-0.4,1.1-1.1,1.1C172.4,2.3,172,1.8,172,1.1z"/>
</g>
<g>
	<path class="st0" d="M200,1.1c0-0.7,0.5-1.1,1.1-1.1s1.1,0.5,1.1,1.1c0,0.6-0.4,1.1-1.1,1.1C200.4,2.3,200,1.8,200,1.1z"/>
</g>
<g>
	<path class="st0" d="M232,1.1c0-0.7,0.5-1.1,1.1-1.1s1.1,0.5,1.1,1.1c0,0.6-0.4,1.1-1.1,1.1C232.4,2.3,232,1.8,232,1.1z"/>
</g>
<g>
	<path class="st0" d="M260,1.1c0-0.7,0.5-1.1,1.1-1.1s1.1,0.5,1.1,1.1c0,0.6-0.4,1.1-1.1,1.1C260.4,2.3,260,1.8,260,1.1z"/>
</g>
<g>
	<path class="st0" d="M289,1.1c0-0.7,0.5-1.1,1.1-1.1s1.1,0.5,1.1,1.1c0,0.6-0.4,1.1-1.1,1.1C289.4,2.3,289,1.8,289,1.1z"/>
</g>
<g>
	<path class="st0" d="M317,1.1c0-0.7,0.5-1.1,1.1-1.1s1.1,0.5,1.1,1.1c0,0.6-0.4,1.1-1.1,1.1C317.4,2.3,317,1.8,317,1.1z"/>
</g>
<g>
	<path class="st0" d="M347,1.1c0-0.7,0.5-1.1,1.1-1.1s1.1,0.5,1.1,1.1c0,0.6-0.4,1.1-1.1,1.1C347.4,2.3,347,1.8,347,1.1z"/>
</g>
<g>
	<path class="st0" d="M375,1.1c0-0.7,0.5-1.1,1.1-1.1s1.1,0.5,1.1,1.1c0,0.6-0.4,1.1-1.1,1.1C375.4,2.3,375,1.8,375,1.1z"/>
</g>
<g>
	<path class="st0" d="M404,1.1c0-0.7,0.5-1.1,1.1-1.1s1.1,0.5,1.1,1.1c0,0.6-0.4,1.1-1.1,1.1C404.4,2.3,404,1.8,404,1.1z"/>
</g>
<g>
	<path class="st0" d="M432,1.1c0-0.7,0.5-1.1,1.1-1.1s1.1,0.5,1.1,1.1c0,0.6-0.4,1.1-1.1,1.1C432.4,2.3,432,1.8,432,1.1z"/>
</g>
<g>
	<path class="st0" d="M461,1.1c0-0.7,0.5-1.1,1.1-1.1c0.6,0,1.1,0.5,1.1,1.1c0,0.6-0.4,1.1-1.1,1.1C461.4,2.3,461,1.8,461,1.1z"/>
</g>
<g>
	<path class="st0" d="M0,26.1C0,25.5,0.5,25,1.1,25s1.1,0.5,1.1,1.1c0,0.6-0.4,1.1-1.1,1.1C0.4,27.3,0,26.8,0,26.1z"/>
</g>
<g>
	<path class="st0" d="M28,26.1c0-0.7,0.5-1.1,1.1-1.1s1.1,0.5,1.1,1.1c0,0.6-0.4,1.1-1.1,1.1C28.4,27.3,28,26.8,28,26.1z"/>
</g>
<g>
	<path class="st0" d="M57,26.1c0-0.7,0.5-1.1,1.1-1.1s1.1,0.5,1.1,1.1c0,0.6-0.4,1.1-1.1,1.1C57.4,27.3,57,26.8,57,26.1z"/>
</g>
<g>
	<path class="st0" d="M85,26.1c0-0.7,0.5-1.1,1.1-1.1s1.1,0.5,1.1,1.1c0,0.6-0.4,1.1-1.1,1.1C85.4,27.3,85,26.8,85,26.1z"/>
</g>
<g>
	<path class="st0" d="M115,26.1c0-0.7,0.5-1.1,1.1-1.1s1.1,0.5,1.1,1.1c0,0.6-0.4,1.1-1.1,1.1C115.4,27.3,115,26.8,115,26.1z"/>
</g>
<g>
	<path class="st0" d="M143,26.1c0-0.7,0.5-1.1,1.1-1.1s1.1,0.5,1.1,1.1c0,0.6-0.4,1.1-1.1,1.1C143.4,27.3,143,26.8,143,26.1z"/>
</g>
<g>
	<path class="st0" d="M172,26.1c0-0.7,0.5-1.1,1.1-1.1s1.1,0.5,1.1,1.1c0,0.6-0.4,1.1-1.1,1.1C172.4,27.3,172,26.8,172,26.1z"/>
</g>
<g>
	<path class="st0" d="M200,26.1c0-0.7,0.5-1.1,1.1-1.1s1.1,0.5,1.1,1.1c0,0.6-0.4,1.1-1.1,1.1C200.4,27.3,200,26.8,200,26.1z"/>
</g>
<g>
	<path class="st0" d="M232,26.1c0-0.7,0.5-1.1,1.1-1.1s1.1,0.5,1.1,1.1c0,0.6-0.4,1.1-1.1,1.1C232.4,27.3,232,26.8,232,26.1z"/>
</g>
<g>
	<path class="st0" d="M260,26.1c0-0.7,0.5-1.1,1.1-1.1s1.1,0.5,1.1,1.1c0,0.6-0.4,1.1-1.1,1.1C260.4,27.3,260,26.8,260,26.1z"/>
</g>
<g>
	<path class="st0" d="M289,26.1c0-0.7,0.5-1.1,1.1-1.1s1.1,0.5,1.1,1.1c0,0.6-0.4,1.1-1.1,1.1C289.4,27.3,289,26.8,289,26.1z"/>
</g>
<g>
	<path class="st0" d="M317,26.1c0-0.7,0.5-1.1,1.1-1.1s1.1,0.5,1.1,1.1c0,0.6-0.4,1.1-1.1,1.1C317.4,27.3,317,26.8,317,26.1z"/>
</g>
<g>
	<path class="st0" d="M347,26.1c0-0.7,0.5-1.1,1.1-1.1s1.1,0.5,1.1,1.1c0,0.6-0.4,1.1-1.1,1.1C347.4,27.3,347,26.8,347,26.1z"/>
</g>
<g>
	<path class="st0" d="M375,26.1c0-0.7,0.5-1.1,1.1-1.1s1.1,0.5,1.1,1.1c0,0.6-0.4,1.1-1.1,1.1C375.4,27.3,375,26.8,375,26.1z"/>
</g>
<g>
	<path class="st0" d="M404,26.1c0-0.7,0.5-1.1,1.1-1.1s1.1,0.5,1.1,1.1c0,0.6-0.4,1.1-1.1,1.1C404.4,27.3,404,26.8,404,26.1z"/>
</g>
<g>
	<path class="st0" d="M432,26.1c0-0.7,0.5-1.1,1.1-1.1s1.1,0.5,1.1,1.1c0,0.6-0.4,1.1-1.1,1.1C432.4,27.3,432,26.8,432,26.1z"/>
</g>
<g>
	<path class="st0" d="M461,26.1c0-0.7,0.5-1.1,1.1-1.1c0.6,0,1.1,0.5,1.1,1.1c0,0.6-0.4,1.1-1.1,1.1C461.4,27.3,461,26.8,461,26.1z"
		/>
</g>
<g>
	<path class="st0" d="M0,50.1C0,49.5,0.5,49,1.1,49s1.1,0.5,1.1,1.1c0,0.6-0.4,1.1-1.1,1.1C0.4,51.3,0,50.8,0,50.1z"/>
</g>
<g>
	<path class="st0" d="M28,50.1c0-0.7,0.5-1.1,1.1-1.1s1.1,0.5,1.1,1.1c0,0.6-0.4,1.1-1.1,1.1C28.4,51.3,28,50.8,28,50.1z"/>
</g>
<g>
	<path class="st0" d="M57,50.1c0-0.7,0.5-1.1,1.1-1.1s1.1,0.5,1.1,1.1c0,0.6-0.4,1.1-1.1,1.1C57.4,51.3,57,50.8,57,50.1z"/>
</g>
<g>
	<path class="st0" d="M85,50.1c0-0.7,0.5-1.1,1.1-1.1s1.1,0.5,1.1,1.1c0,0.6-0.4,1.1-1.1,1.1C85.4,51.3,85,50.8,85,50.1z"/>
</g>
<g>
	<path class="st0" d="M115,50.1c0-0.7,0.5-1.1,1.1-1.1s1.1,0.5,1.1,1.1c0,0.6-0.4,1.1-1.1,1.1C115.4,51.3,115,50.8,115,50.1z"/>
</g>
<g>
	<path class="st0" d="M143,50.1c0-0.7,0.5-1.1,1.1-1.1s1.1,0.5,1.1,1.1c0,0.6-0.4,1.1-1.1,1.1C143.4,51.3,143,50.8,143,50.1z"/>
</g>
<g>
	<path class="st0" d="M172,50.1c0-0.7,0.5-1.1,1.1-1.1s1.1,0.5,1.1,1.1c0,0.6-0.4,1.1-1.1,1.1C172.4,51.3,172,50.8,172,50.1z"/>
</g>
<g>
	<path class="st0" d="M200,50.1c0-0.7,0.5-1.1,1.1-1.1s1.1,0.5,1.1,1.1c0,0.6-0.4,1.1-1.1,1.1C200.4,51.3,200,50.8,200,50.1z"/>
</g>
<g>
	<path class="st0" d="M232,50.1c0-0.7,0.5-1.1,1.1-1.1s1.1,0.5,1.1,1.1c0,0.6-0.4,1.1-1.1,1.1C232.4,51.3,232,50.8,232,50.1z"/>
</g>
<g>
	<path class="st0" d="M260,50.1c0-0.7,0.5-1.1,1.1-1.1s1.1,0.5,1.1,1.1c0,0.6-0.4,1.1-1.1,1.1C260.4,51.3,260,50.8,260,50.1z"/>
</g>
<g>
	<path class="st0" d="M289,50.1c0-0.7,0.5-1.1,1.1-1.1s1.1,0.5,1.1,1.1c0,0.6-0.4,1.1-1.1,1.1C289.4,51.3,289,50.8,289,50.1z"/>
</g>
<g>
	<path class="st0" d="M317,50.1c0-0.7,0.5-1.1,1.1-1.1s1.1,0.5,1.1,1.1c0,0.6-0.4,1.1-1.1,1.1C317.4,51.3,317,50.8,317,50.1z"/>
</g>
<g>
	<path class="st0" d="M347,50.1c0-0.7,0.5-1.1,1.1-1.1s1.1,0.5,1.1,1.1c0,0.6-0.4,1.1-1.1,1.1C347.4,51.3,347,50.8,347,50.1z"/>
</g>
<g>
	<path class="st0" d="M375,50.1c0-0.7,0.5-1.1,1.1-1.1s1.1,0.5,1.1,1.1c0,0.6-0.4,1.1-1.1,1.1C375.4,51.3,375,50.8,375,50.1z"/>
</g>
<g>
	<path class="st0" d="M404,50.1c0-0.7,0.5-1.1,1.1-1.1s1.1,0.5,1.1,1.1c0,0.6-0.4,1.1-1.1,1.1C404.4,51.3,404,50.8,404,50.1z"/>
</g>
<g>
	<path class="st0" d="M432,50.1c0-0.7,0.5-1.1,1.1-1.1s1.1,0.5,1.1,1.1c0,0.6-0.4,1.1-1.1,1.1C432.4,51.3,432,50.8,432,50.1z"/>
</g>
<g>
	<path class="st0" d="M461,50.1c0-0.7,0.5-1.1,1.1-1.1c0.6,0,1.1,0.5,1.1,1.1c0,0.6-0.4,1.1-1.1,1.1C461.4,51.3,461,50.8,461,50.1z"
		/>
</g>
<g>
	<path class="st0" d="M0,75.1C0,74.5,0.5,74,1.1,74s1.1,0.5,1.1,1.1c0,0.6-0.4,1.1-1.1,1.1C0.4,76.3,0,75.8,0,75.1z"/>
</g>
<g>
	<path class="st0" d="M28,75.1c0-0.7,0.5-1.1,1.1-1.1s1.1,0.5,1.1,1.1c0,0.6-0.4,1.1-1.1,1.1C28.4,76.3,28,75.8,28,75.1z"/>
</g>
<g>
	<path class="st0" d="M57,75.1c0-0.7,0.5-1.1,1.1-1.1s1.1,0.5,1.1,1.1c0,0.6-0.4,1.1-1.1,1.1C57.4,76.3,57,75.8,57,75.1z"/>
</g>
<g>
	<path class="st0" d="M85,75.1c0-0.7,0.5-1.1,1.1-1.1s1.1,0.5,1.1,1.1c0,0.6-0.4,1.1-1.1,1.1C85.4,76.3,85,75.8,85,75.1z"/>
</g>
<g>
	<path class="st0" d="M115,75.1c0-0.7,0.5-1.1,1.1-1.1s1.1,0.5,1.1,1.1c0,0.6-0.4,1.1-1.1,1.1C115.4,76.3,115,75.8,115,75.1z"/>
</g>
<g>
	<path class="st0" d="M143,75.1c0-0.7,0.5-1.1,1.1-1.1s1.1,0.5,1.1,1.1c0,0.6-0.4,1.1-1.1,1.1C143.4,76.3,143,75.8,143,75.1z"/>
</g>
<g>
	<path class="st0" d="M172,75.1c0-0.7,0.5-1.1,1.1-1.1s1.1,0.5,1.1,1.1c0,0.6-0.4,1.1-1.1,1.1C172.4,76.3,172,75.8,172,75.1z"/>
</g>
<g>
	<path class="st0" d="M200,75.1c0-0.7,0.5-1.1,1.1-1.1s1.1,0.5,1.1,1.1c0,0.6-0.4,1.1-1.1,1.1C200.4,76.3,200,75.8,200,75.1z"/>
</g>
<g>
	<path class="st0" d="M232,75.1c0-0.7,0.5-1.1,1.1-1.1s1.1,0.5,1.1,1.1c0,0.6-0.4,1.1-1.1,1.1C232.4,76.3,232,75.8,232,75.1z"/>
</g>
<g>
	<path class="st0" d="M260,75.1c0-0.7,0.5-1.1,1.1-1.1s1.1,0.5,1.1,1.1c0,0.6-0.4,1.1-1.1,1.1C260.4,76.3,260,75.8,260,75.1z"/>
</g>
<g>
	<path class="st0" d="M289,75.1c0-0.7,0.5-1.1,1.1-1.1s1.1,0.5,1.1,1.1c0,0.6-0.4,1.1-1.1,1.1C289.4,76.3,289,75.8,289,75.1z"/>
</g>
<g>
	<path class="st0" d="M317,75.1c0-0.7,0.5-1.1,1.1-1.1s1.1,0.5,1.1,1.1c0,0.6-0.4,1.1-1.1,1.1C317.4,76.3,317,75.8,317,75.1z"/>
</g>
<g>
	<path class="st0" d="M347,75.1c0-0.7,0.5-1.1,1.1-1.1s1.1,0.5,1.1,1.1c0,0.6-0.4,1.1-1.1,1.1C347.4,76.3,347,75.8,347,75.1z"/>
</g>
<g>
	<path class="st0" d="M375,75.1c0-0.7,0.5-1.1,1.1-1.1s1.1,0.5,1.1,1.1c0,0.6-0.4,1.1-1.1,1.1C375.4,76.3,375,75.8,375,75.1z"/>
</g>
<g>
	<path class="st0" d="M404,75.1c0-0.7,0.5-1.1,1.1-1.1s1.1,0.5,1.1,1.1c0,0.6-0.4,1.1-1.1,1.1C404.4,76.3,404,75.8,404,75.1z"/>
</g>
<g>
	<path class="st0" d="M432,75.1c0-0.7,0.5-1.1,1.1-1.1s1.1,0.5,1.1,1.1c0,0.6-0.4,1.1-1.1,1.1C432.4,76.3,432,75.8,432,75.1z"/>
</g>
<g>
	<path class="st0" d="M461,75.1c0-0.7,0.5-1.1,1.1-1.1c0.6,0,1.1,0.5,1.1,1.1c0,0.6-0.4,1.1-1.1,1.1C461.4,76.3,461,75.8,461,75.1z"
		/>
</g>
<g>
	<path class="st0" d="M0,98.1C0,97.5,0.5,97,1.1,97s1.1,0.5,1.1,1.1c0,0.6-0.4,1.1-1.1,1.1C0.4,99.3,0,98.8,0,98.1z"/>
</g>
<g>
	<path class="st0" d="M28,98.1c0-0.7,0.5-1.1,1.1-1.1s1.1,0.5,1.1,1.1c0,0.6-0.4,1.1-1.1,1.1C28.4,99.3,28,98.8,28,98.1z"/>
</g>
<g>
	<path class="st0" d="M57,98.1c0-0.7,0.5-1.1,1.1-1.1s1.1,0.5,1.1,1.1c0,0.6-0.4,1.1-1.1,1.1C57.4,99.3,57,98.8,57,98.1z"/>
</g>
<g>
	<path class="st0" d="M85,98.1c0-0.7,0.5-1.1,1.1-1.1s1.1,0.5,1.1,1.1c0,0.6-0.4,1.1-1.1,1.1C85.4,99.3,85,98.8,85,98.1z"/>
</g>
<g>
	<path class="st0" d="M115,98.1c0-0.7,0.5-1.1,1.1-1.1s1.1,0.5,1.1,1.1c0,0.6-0.4,1.1-1.1,1.1C115.4,99.3,115,98.8,115,98.1z"/>
</g>
<g>
	<path class="st0" d="M143,98.1c0-0.7,0.5-1.1,1.1-1.1s1.1,0.5,1.1,1.1c0,0.6-0.4,1.1-1.1,1.1C143.4,99.3,143,98.8,143,98.1z"/>
</g>
<g>
	<path class="st0" d="M172,98.1c0-0.7,0.5-1.1,1.1-1.1s1.1,0.5,1.1,1.1c0,0.6-0.4,1.1-1.1,1.1C172.4,99.3,172,98.8,172,98.1z"/>
</g>
<g>
	<path class="st0" d="M200,98.1c0-0.7,0.5-1.1,1.1-1.1s1.1,0.5,1.1,1.1c0,0.6-0.4,1.1-1.1,1.1C200.4,99.3,200,98.8,200,98.1z"/>
</g>
<g>
	<path class="st0" d="M232,98.1c0-0.7,0.5-1.1,1.1-1.1s1.1,0.5,1.1,1.1c0,0.6-0.4,1.1-1.1,1.1C232.4,99.3,232,98.8,232,98.1z"/>
</g>
<g>
	<path class="st0" d="M260,98.1c0-0.7,0.5-1.1,1.1-1.1s1.1,0.5,1.1,1.1c0,0.6-0.4,1.1-1.1,1.1C260.4,99.3,260,98.8,260,98.1z"/>
</g>
<g>
	<path class="st0" d="M289,98.1c0-0.7,0.5-1.1,1.1-1.1s1.1,0.5,1.1,1.1c0,0.6-0.4,1.1-1.1,1.1C289.4,99.3,289,98.8,289,98.1z"/>
</g>
<g>
	<path class="st0" d="M317,98.1c0-0.7,0.5-1.1,1.1-1.1s1.1,0.5,1.1,1.1c0,0.6-0.4,1.1-1.1,1.1C317.4,99.3,317,98.8,317,98.1z"/>
</g>
<g>
	<path class="st0" d="M347,98.1c0-0.7,0.5-1.1,1.1-1.1s1.1,0.5,1.1,1.1c0,0.6-0.4,1.1-1.1,1.1C347.4,99.3,347,98.8,347,98.1z"/>
</g>
<g>
	<path class="st0" d="M375,98.1c0-0.7,0.5-1.1,1.1-1.1s1.1,0.5,1.1,1.1c0,0.6-0.4,1.1-1.1,1.1C375.4,99.3,375,98.8,375,98.1z"/>
</g>
<g>
	<path class="st0" d="M404,98.1c0-0.7,0.5-1.1,1.1-1.1s1.1,0.5,1.1,1.1c0,0.6-0.4,1.1-1.1,1.1C404.4,99.3,404,98.8,404,98.1z"/>
</g>
<g>
	<path class="st0" d="M432,98.1c0-0.7,0.5-1.1,1.1-1.1s1.1,0.5,1.1,1.1c0,0.6-0.4,1.1-1.1,1.1C432.4,99.3,432,98.8,432,98.1z"/>
</g>
<g>
	<path class="st0" d="M461,98.1c0-0.7,0.5-1.1,1.1-1.1c0.6,0,1.1,0.5,1.1,1.1c0,0.6-0.4,1.1-1.1,1.1C461.4,99.3,461,98.8,461,98.1z"
		/>
</g>
<g>
	<path class="st0" d="M0,123.1c0-0.7,0.5-1.1,1.1-1.1s1.1,0.5,1.1,1.1c0,0.6-0.4,1.1-1.1,1.1C0.4,124.3,0,123.8,0,123.1z"/>
</g>
<g>
	<path class="st0" d="M28,123.1c0-0.7,0.5-1.1,1.1-1.1s1.1,0.5,1.1,1.1c0,0.6-0.4,1.1-1.1,1.1C28.4,124.3,28,123.8,28,123.1z"/>
</g>
<g>
	<path class="st0" d="M57,123.1c0-0.7,0.5-1.1,1.1-1.1s1.1,0.5,1.1,1.1c0,0.6-0.4,1.1-1.1,1.1C57.4,124.3,57,123.8,57,123.1z"/>
</g>
<g>
	<path class="st0" d="M85,123.1c0-0.7,0.5-1.1,1.1-1.1s1.1,0.5,1.1,1.1c0,0.6-0.4,1.1-1.1,1.1C85.4,124.3,85,123.8,85,123.1z"/>
</g>
<g>
	<path class="st0" d="M115,123.1c0-0.7,0.5-1.1,1.1-1.1s1.1,0.5,1.1,1.1c0,0.6-0.4,1.1-1.1,1.1C115.4,124.3,115,123.8,115,123.1z"/>
</g>
<g>
	<path class="st0" d="M143,123.1c0-0.7,0.5-1.1,1.1-1.1s1.1,0.5,1.1,1.1c0,0.6-0.4,1.1-1.1,1.1C143.4,124.3,143,123.8,143,123.1z"/>
</g>
<g>
	<path class="st0" d="M172,123.1c0-0.7,0.5-1.1,1.1-1.1s1.1,0.5,1.1,1.1c0,0.6-0.4,1.1-1.1,1.1C172.4,124.3,172,123.8,172,123.1z"/>
</g>
<g>
	<path class="st0" d="M200,123.1c0-0.7,0.5-1.1,1.1-1.1s1.1,0.5,1.1,1.1c0,0.6-0.4,1.1-1.1,1.1C200.4,124.3,200,123.8,200,123.1z"/>
</g>
<g>
	<path class="st0" d="M232,123.1c0-0.7,0.5-1.1,1.1-1.1s1.1,0.5,1.1,1.1c0,0.6-0.4,1.1-1.1,1.1C232.4,124.3,232,123.8,232,123.1z"/>
</g>
<g>
	<path class="st0" d="M260,123.1c0-0.7,0.5-1.1,1.1-1.1s1.1,0.5,1.1,1.1c0,0.6-0.4,1.1-1.1,1.1C260.4,124.3,260,123.8,260,123.1z"/>
</g>
<g>
	<path class="st0" d="M289,123.1c0-0.7,0.5-1.1,1.1-1.1s1.1,0.5,1.1,1.1c0,0.6-0.4,1.1-1.1,1.1C289.4,124.3,289,123.8,289,123.1z"/>
</g>
<g>
	<path class="st0" d="M317,123.1c0-0.7,0.5-1.1,1.1-1.1s1.1,0.5,1.1,1.1c0,0.6-0.4,1.1-1.1,1.1C317.4,124.3,317,123.8,317,123.1z"/>
</g>
<g>
	<path class="st0" d="M347,123.1c0-0.7,0.5-1.1,1.1-1.1s1.1,0.5,1.1,1.1c0,0.6-0.4,1.1-1.1,1.1C347.4,124.3,347,123.8,347,123.1z"/>
</g>
<g>
	<path class="st0" d="M375,123.1c0-0.7,0.5-1.1,1.1-1.1s1.1,0.5,1.1,1.1c0,0.6-0.4,1.1-1.1,1.1C375.4,124.3,375,123.8,375,123.1z"/>
</g>
<g>
	<path class="st0" d="M404,123.1c0-0.7,0.5-1.1,1.1-1.1s1.1,0.5,1.1,1.1c0,0.6-0.4,1.1-1.1,1.1C404.4,124.3,404,123.8,404,123.1z"/>
</g>
<g>
	<path class="st0" d="M432,123.1c0-0.7,0.5-1.1,1.1-1.1s1.1,0.5,1.1,1.1c0,0.6-0.4,1.1-1.1,1.1C432.4,124.3,432,123.8,432,123.1z"/>
</g>
<g>
	<path class="st0" d="M461,123.1c0-0.7,0.5-1.1,1.1-1.1c0.6,0,1.1,0.5,1.1,1.1c0,0.6-0.4,1.1-1.1,1.1
		C461.4,124.3,461,123.8,461,123.1z"/>
</g>
<g>
	<path class="st0" d="M0,147.1c0-0.7,0.5-1.1,1.1-1.1s1.1,0.5,1.1,1.1c0,0.6-0.4,1.1-1.1,1.1C0.4,148.3,0,147.8,0,147.1z"/>
</g>
<g>
	<path class="st0" d="M28,147.1c0-0.7,0.5-1.1,1.1-1.1s1.1,0.5,1.1,1.1c0,0.6-0.4,1.1-1.1,1.1C28.4,148.3,28,147.8,28,147.1z"/>
</g>
<g>
	<path class="st0" d="M57,147.1c0-0.7,0.5-1.1,1.1-1.1s1.1,0.5,1.1,1.1c0,0.6-0.4,1.1-1.1,1.1C57.4,148.3,57,147.8,57,147.1z"/>
</g>
<g>
	<path class="st0" d="M85,147.1c0-0.7,0.5-1.1,1.1-1.1s1.1,0.5,1.1,1.1c0,0.6-0.4,1.1-1.1,1.1C85.4,148.3,85,147.8,85,147.1z"/>
</g>
<g>
	<path class="st0" d="M115,147.1c0-0.7,0.5-1.1,1.1-1.1s1.1,0.5,1.1,1.1c0,0.6-0.4,1.1-1.1,1.1C115.4,148.3,115,147.8,115,147.1z"/>
</g>
<g>
	<path class="st0" d="M143,147.1c0-0.7,0.5-1.1,1.1-1.1s1.1,0.5,1.1,1.1c0,0.6-0.4,1.1-1.1,1.1C143.4,148.3,143,147.8,143,147.1z"/>
</g>
<g>
	<path class="st0" d="M172,147.1c0-0.7,0.5-1.1,1.1-1.1s1.1,0.5,1.1,1.1c0,0.6-0.4,1.1-1.1,1.1C172.4,148.3,172,147.8,172,147.1z"/>
</g>
<g>
	<path class="st0" d="M200,147.1c0-0.7,0.5-1.1,1.1-1.1s1.1,0.5,1.1,1.1c0,0.6-0.4,1.1-1.1,1.1C200.4,148.3,200,147.8,200,147.1z"/>
</g>
<g>
	<path class="st0" d="M232,147.1c0-0.7,0.5-1.1,1.1-1.1s1.1,0.5,1.1,1.1c0,0.6-0.4,1.1-1.1,1.1C232.4,148.3,232,147.8,232,147.1z"/>
</g>
<g>
	<path class="st0" d="M260,147.1c0-0.7,0.5-1.1,1.1-1.1s1.1,0.5,1.1,1.1c0,0.6-0.4,1.1-1.1,1.1C260.4,148.3,260,147.8,260,147.1z"/>
</g>
<g>
	<path class="st0" d="M289,147.1c0-0.7,0.5-1.1,1.1-1.1s1.1,0.5,1.1,1.1c0,0.6-0.4,1.1-1.1,1.1C289.4,148.3,289,147.8,289,147.1z"/>
</g>
<g>
	<path class="st0" d="M317,147.1c0-0.7,0.5-1.1,1.1-1.1s1.1,0.5,1.1,1.1c0,0.6-0.4,1.1-1.1,1.1C317.4,148.3,317,147.8,317,147.1z"/>
</g>
<g>
	<path class="st0" d="M347,147.1c0-0.7,0.5-1.1,1.1-1.1s1.1,0.5,1.1,1.1c0,0.6-0.4,1.1-1.1,1.1C347.4,148.3,347,147.8,347,147.1z"/>
</g>
<g>
	<path class="st0" d="M375,147.1c0-0.7,0.5-1.1,1.1-1.1s1.1,0.5,1.1,1.1c0,0.6-0.4,1.1-1.1,1.1C375.4,148.3,375,147.8,375,147.1z"/>
</g>
<g>
	<path class="st0" d="M404,147.1c0-0.7,0.5-1.1,1.1-1.1s1.1,0.5,1.1,1.1c0,0.6-0.4,1.1-1.1,1.1C404.4,148.3,404,147.8,404,147.1z"/>
</g>
<g>
	<path class="st0" d="M432,147.1c0-0.7,0.5-1.1,1.1-1.1s1.1,0.5,1.1,1.1c0,0.6-0.4,1.1-1.1,1.1C432.4,148.3,432,147.8,432,147.1z"/>
</g>
<g>
	<path class="st0" d="M461,147.1c0-0.7,0.5-1.1,1.1-1.1c0.6,0,1.1,0.5,1.1,1.1c0,0.6-0.4,1.1-1.1,1.1
		C461.4,148.3,461,147.8,461,147.1z"/>
</g>
<g>
	<path class="st0" d="M0,172.1c0-0.7,0.5-1.1,1.1-1.1s1.1,0.5,1.1,1.1c0,0.6-0.4,1.1-1.1,1.1C0.4,173.3,0,172.8,0,172.1z"/>
</g>
<g>
	<path class="st0" d="M28,172.1c0-0.7,0.5-1.1,1.1-1.1s1.1,0.5,1.1,1.1c0,0.6-0.4,1.1-1.1,1.1C28.4,173.3,28,172.8,28,172.1z"/>
</g>
<g>
	<path class="st0" d="M57,172.1c0-0.7,0.5-1.1,1.1-1.1s1.1,0.5,1.1,1.1c0,0.6-0.4,1.1-1.1,1.1C57.4,173.3,57,172.8,57,172.1z"/>
</g>
<g>
	<path class="st0" d="M85,172.1c0-0.7,0.5-1.1,1.1-1.1s1.1,0.5,1.1,1.1c0,0.6-0.4,1.1-1.1,1.1C85.4,173.3,85,172.8,85,172.1z"/>
</g>
<g>
	<path class="st0" d="M115,172.1c0-0.7,0.5-1.1,1.1-1.1s1.1,0.5,1.1,1.1c0,0.6-0.4,1.1-1.1,1.1C115.4,173.3,115,172.8,115,172.1z"/>
</g>
<g>
	<path class="st0" d="M143,172.1c0-0.7,0.5-1.1,1.1-1.1s1.1,0.5,1.1,1.1c0,0.6-0.4,1.1-1.1,1.1C143.4,173.3,143,172.8,143,172.1z"/>
</g>
<g>
	<path class="st0" d="M172,172.1c0-0.7,0.5-1.1,1.1-1.1s1.1,0.5,1.1,1.1c0,0.6-0.4,1.1-1.1,1.1C172.4,173.3,172,172.8,172,172.1z"/>
</g>
<g>
	<path class="st0" d="M200,172.1c0-0.7,0.5-1.1,1.1-1.1s1.1,0.5,1.1,1.1c0,0.6-0.4,1.1-1.1,1.1C200.4,173.3,200,172.8,200,172.1z"/>
</g>
<g>
	<path class="st0" d="M232,172.1c0-0.7,0.5-1.1,1.1-1.1s1.1,0.5,1.1,1.1c0,0.6-0.4,1.1-1.1,1.1C232.4,173.3,232,172.8,232,172.1z"/>
</g>
<g>
	<path class="st0" d="M260,172.1c0-0.7,0.5-1.1,1.1-1.1s1.1,0.5,1.1,1.1c0,0.6-0.4,1.1-1.1,1.1C260.4,173.3,260,172.8,260,172.1z"/>
</g>
<g>
	<path class="st0" d="M289,172.1c0-0.7,0.5-1.1,1.1-1.1s1.1,0.5,1.1,1.1c0,0.6-0.4,1.1-1.1,1.1C289.4,173.3,289,172.8,289,172.1z"/>
</g>
<g>
	<path class="st0" d="M317,172.1c0-0.7,0.5-1.1,1.1-1.1s1.1,0.5,1.1,1.1c0,0.6-0.4,1.1-1.1,1.1C317.4,173.3,317,172.8,317,172.1z"/>
</g>
<g>
	<path class="st0" d="M347,172.1c0-0.7,0.5-1.1,1.1-1.1s1.1,0.5,1.1,1.1c0,0.6-0.4,1.1-1.1,1.1C347.4,173.3,347,172.8,347,172.1z"/>
</g>
<g>
	<path class="st0" d="M375,172.1c0-0.7,0.5-1.1,1.1-1.1s1.1,0.5,1.1,1.1c0,0.6-0.4,1.1-1.1,1.1C375.4,173.3,375,172.8,375,172.1z"/>
</g>
<g>
	<path class="st0" d="M404,172.1c0-0.7,0.5-1.1,1.1-1.1s1.1,0.5,1.1,1.1c0,0.6-0.4,1.1-1.1,1.1C404.4,173.3,404,172.8,404,172.1z"/>
</g>
<g>
	<path class="st0" d="M432,172.1c0-0.7,0.5-1.1,1.1-1.1s1.1,0.5,1.1,1.1c0,0.6-0.4,1.1-1.1,1.1C432.4,173.3,432,172.8,432,172.1z"/>
</g>
<g>
	<path class="st0" d="M461,172.1c0-0.7,0.5-1.1,1.1-1.1c0.6,0,1.1,0.5,1.1,1.1c0,0.6-0.4,1.1-1.1,1.1
		C461.4,173.3,461,172.8,461,172.1z"/>
</g>
<g>
	<path class="st0" d="M0,197.1c0-0.7,0.5-1.1,1.1-1.1s1.1,0.5,1.1,1.1c0,0.6-0.4,1.1-1.1,1.1C0.4,198.3,0,197.8,0,197.1z"/>
</g>
<g>
	<path class="st0" d="M28,197.1c0-0.7,0.5-1.1,1.1-1.1s1.1,0.5,1.1,1.1c0,0.6-0.4,1.1-1.1,1.1C28.4,198.3,28,197.8,28,197.1z"/>
</g>
<g>
	<path class="st0" d="M57,197.1c0-0.7,0.5-1.1,1.1-1.1s1.1,0.5,1.1,1.1c0,0.6-0.4,1.1-1.1,1.1C57.4,198.3,57,197.8,57,197.1z"/>
</g>
<g>
	<path class="st0" d="M85,197.1c0-0.7,0.5-1.1,1.1-1.1s1.1,0.5,1.1,1.1c0,0.6-0.4,1.1-1.1,1.1C85.4,198.3,85,197.8,85,197.1z"/>
</g>
<g>
	<path class="st0" d="M115,197.1c0-0.7,0.5-1.1,1.1-1.1s1.1,0.5,1.1,1.1c0,0.6-0.4,1.1-1.1,1.1C115.4,198.3,115,197.8,115,197.1z"/>
</g>
<g>
	<path class="st0" d="M143,197.1c0-0.7,0.5-1.1,1.1-1.1s1.1,0.5,1.1,1.1c0,0.6-0.4,1.1-1.1,1.1C143.4,198.3,143,197.8,143,197.1z"/>
</g>
<g>
	<path class="st0" d="M172,197.1c0-0.7,0.5-1.1,1.1-1.1s1.1,0.5,1.1,1.1c0,0.6-0.4,1.1-1.1,1.1C172.4,198.3,172,197.8,172,197.1z"/>
</g>
<g>
	<path class="st0" d="M200,197.1c0-0.7,0.5-1.1,1.1-1.1s1.1,0.5,1.1,1.1c0,0.6-0.4,1.1-1.1,1.1C200.4,198.3,200,197.8,200,197.1z"/>
</g>
<g>
	<path class="st0" d="M232,197.1c0-0.7,0.5-1.1,1.1-1.1s1.1,0.5,1.1,1.1c0,0.6-0.4,1.1-1.1,1.1C232.4,198.3,232,197.8,232,197.1z"/>
</g>
<g>
	<path class="st0" d="M260,197.1c0-0.7,0.5-1.1,1.1-1.1s1.1,0.5,1.1,1.1c0,0.6-0.4,1.1-1.1,1.1C260.4,198.3,260,197.8,260,197.1z"/>
</g>
<g>
	<path class="st0" d="M289,197.1c0-0.7,0.5-1.1,1.1-1.1s1.1,0.5,1.1,1.1c0,0.6-0.4,1.1-1.1,1.1C289.4,198.3,289,197.8,289,197.1z"/>
</g>
<g>
	<path class="st0" d="M317,197.1c0-0.7,0.5-1.1,1.1-1.1s1.1,0.5,1.1,1.1c0,0.6-0.4,1.1-1.1,1.1C317.4,198.3,317,197.8,317,197.1z"/>
</g>
<g>
	<path class="st0" d="M347,197.1c0-0.7,0.5-1.1,1.1-1.1s1.1,0.5,1.1,1.1c0,0.6-0.4,1.1-1.1,1.1C347.4,198.3,347,197.8,347,197.1z"/>
</g>
<g>
	<path class="st0" d="M375,197.1c0-0.7,0.5-1.1,1.1-1.1s1.1,0.5,1.1,1.1c0,0.6-0.4,1.1-1.1,1.1C375.4,198.3,375,197.8,375,197.1z"/>
</g>
<g>
	<path class="st0" d="M404,197.1c0-0.7,0.5-1.1,1.1-1.1s1.1,0.5,1.1,1.1c0,0.6-0.4,1.1-1.1,1.1C404.4,198.3,404,197.8,404,197.1z"/>
</g>
<g>
	<path class="st0" d="M432,197.1c0-0.7,0.5-1.1,1.1-1.1s1.1,0.5,1.1,1.1c0,0.6-0.4,1.1-1.1,1.1C432.4,198.3,432,197.8,432,197.1z"/>
</g>
<g>
	<path class="st0" d="M461,197.1c0-0.7,0.5-1.1,1.1-1.1c0.6,0,1.1,0.5,1.1,1.1c0,0.6-0.4,1.1-1.1,1.1
		C461.4,198.3,461,197.8,461,197.1z"/>
</g>
<g>
	<path class="st0" d="M0,222.1c0-0.7,0.5-1.1,1.1-1.1s1.1,0.5,1.1,1.1c0,0.6-0.4,1.1-1.1,1.1C0.4,223.3,0,222.8,0,222.1z"/>
</g>
<g>
	<path class="st0" d="M28,222.1c0-0.7,0.5-1.1,1.1-1.1s1.1,0.5,1.1,1.1c0,0.6-0.4,1.1-1.1,1.1C28.4,223.3,28,222.8,28,222.1z"/>
</g>
<g>
	<path class="st0" d="M57,222.1c0-0.7,0.5-1.1,1.1-1.1s1.1,0.5,1.1,1.1c0,0.6-0.4,1.1-1.1,1.1C57.4,223.3,57,222.8,57,222.1z"/>
</g>
<g>
	<path class="st0" d="M85,222.1c0-0.7,0.5-1.1,1.1-1.1s1.1,0.5,1.1,1.1c0,0.6-0.4,1.1-1.1,1.1C85.4,223.3,85,222.8,85,222.1z"/>
</g>
<g>
	<path class="st0" d="M115,222.1c0-0.7,0.5-1.1,1.1-1.1s1.1,0.5,1.1,1.1c0,0.6-0.4,1.1-1.1,1.1C115.4,223.3,115,222.8,115,222.1z"/>
</g>
<g>
	<path class="st0" d="M143,222.1c0-0.7,0.5-1.1,1.1-1.1s1.1,0.5,1.1,1.1c0,0.6-0.4,1.1-1.1,1.1C143.4,223.3,143,222.8,143,222.1z"/>
</g>
<g>
	<path class="st0" d="M172,222.1c0-0.7,0.5-1.1,1.1-1.1s1.1,0.5,1.1,1.1c0,0.6-0.4,1.1-1.1,1.1C172.4,223.3,172,222.8,172,222.1z"/>
</g>
<g>
	<path class="st0" d="M200,222.1c0-0.7,0.5-1.1,1.1-1.1s1.1,0.5,1.1,1.1c0,0.6-0.4,1.1-1.1,1.1C200.4,223.3,200,222.8,200,222.1z"/>
</g>
<g>
	<path class="st0" d="M232,222.1c0-0.7,0.5-1.1,1.1-1.1s1.1,0.5,1.1,1.1c0,0.6-0.4,1.1-1.1,1.1C232.4,223.3,232,222.8,232,222.1z"/>
</g>
<g>
	<path class="st0" d="M260,222.1c0-0.7,0.5-1.1,1.1-1.1s1.1,0.5,1.1,1.1c0,0.6-0.4,1.1-1.1,1.1C260.4,223.3,260,222.8,260,222.1z"/>
</g>
<g>
	<path class="st0" d="M289,222.1c0-0.7,0.5-1.1,1.1-1.1s1.1,0.5,1.1,1.1c0,0.6-0.4,1.1-1.1,1.1C289.4,223.3,289,222.8,289,222.1z"/>
</g>
<g>
	<path class="st0" d="M317,222.1c0-0.7,0.5-1.1,1.1-1.1s1.1,0.5,1.1,1.1c0,0.6-0.4,1.1-1.1,1.1C317.4,223.3,317,222.8,317,222.1z"/>
</g>
<g>
	<path class="st0" d="M347,222.1c0-0.7,0.5-1.1,1.1-1.1s1.1,0.5,1.1,1.1c0,0.6-0.4,1.1-1.1,1.1C347.4,223.3,347,222.8,347,222.1z"/>
</g>
<g>
	<path class="st0" d="M375,222.1c0-0.7,0.5-1.1,1.1-1.1s1.1,0.5,1.1,1.1c0,0.6-0.4,1.1-1.1,1.1C375.4,223.3,375,222.8,375,222.1z"/>
</g>
<g>
	<path class="st0" d="M404,222.1c0-0.7,0.5-1.1,1.1-1.1s1.1,0.5,1.1,1.1c0,0.6-0.4,1.1-1.1,1.1C404.4,223.3,404,222.8,404,222.1z"/>
</g>
<g>
	<path class="st0" d="M432,222.1c0-0.7,0.5-1.1,1.1-1.1s1.1,0.5,1.1,1.1c0,0.6-0.4,1.1-1.1,1.1C432.4,223.3,432,222.8,432,222.1z"/>
</g>
<g>
	<path class="st0" d="M461,222.1c0-0.7,0.5-1.1,1.1-1.1c0.6,0,1.1,0.5,1.1,1.1c0,0.6-0.4,1.1-1.1,1.1
		C461.4,223.3,461,222.8,461,222.1z"/>
</g>
<g>
	<path class="st0" d="M0,247.1c0-0.7,0.5-1.1,1.1-1.1s1.1,0.5,1.1,1.1c0,0.6-0.4,1.1-1.1,1.1C0.4,248.3,0,247.8,0,247.1z"/>
</g>
<g>
	<path class="st0" d="M28,247.1c0-0.7,0.5-1.1,1.1-1.1s1.1,0.5,1.1,1.1c0,0.6-0.4,1.1-1.1,1.1C28.4,248.3,28,247.8,28,247.1z"/>
</g>
<g>
	<path class="st0" d="M57,247.1c0-0.7,0.5-1.1,1.1-1.1s1.1,0.5,1.1,1.1c0,0.6-0.4,1.1-1.1,1.1C57.4,248.3,57,247.8,57,247.1z"/>
</g>
<g>
	<path class="st0" d="M85,247.1c0-0.7,0.5-1.1,1.1-1.1s1.1,0.5,1.1,1.1c0,0.6-0.4,1.1-1.1,1.1C85.4,248.3,85,247.8,85,247.1z"/>
</g>
<g>
	<path class="st0" d="M115,247.1c0-0.7,0.5-1.1,1.1-1.1s1.1,0.5,1.1,1.1c0,0.6-0.4,1.1-1.1,1.1C115.4,248.3,115,247.8,115,247.1z"/>
</g>
<g>
	<path class="st0" d="M143,247.1c0-0.7,0.5-1.1,1.1-1.1s1.1,0.5,1.1,1.1c0,0.6-0.4,1.1-1.1,1.1C143.4,248.3,143,247.8,143,247.1z"/>
</g>
<g>
	<path class="st0" d="M172,247.1c0-0.7,0.5-1.1,1.1-1.1s1.1,0.5,1.1,1.1c0,0.6-0.4,1.1-1.1,1.1C172.4,248.3,172,247.8,172,247.1z"/>
</g>
<g>
	<path class="st0" d="M200,247.1c0-0.7,0.5-1.1,1.1-1.1s1.1,0.5,1.1,1.1c0,0.6-0.4,1.1-1.1,1.1C200.4,248.3,200,247.8,200,247.1z"/>
</g>
<g>
	<path class="st0" d="M232,247.1c0-0.7,0.5-1.1,1.1-1.1s1.1,0.5,1.1,1.1c0,0.6-0.4,1.1-1.1,1.1C232.4,248.3,232,247.8,232,247.1z"/>
</g>
<g>
	<path class="st0" d="M260,247.1c0-0.7,0.5-1.1,1.1-1.1s1.1,0.5,1.1,1.1c0,0.6-0.4,1.1-1.1,1.1C260.4,248.3,260,247.8,260,247.1z"/>
</g>
<g>
	<path class="st0" d="M289,247.1c0-0.7,0.5-1.1,1.1-1.1s1.1,0.5,1.1,1.1c0,0.6-0.4,1.1-1.1,1.1C289.4,248.3,289,247.8,289,247.1z"/>
</g>
<g>
	<path class="st0" d="M317,247.1c0-0.7,0.5-1.1,1.1-1.1s1.1,0.5,1.1,1.1c0,0.6-0.4,1.1-1.1,1.1C317.4,248.3,317,247.8,317,247.1z"/>
</g>
<g>
	<path class="st0" d="M347,247.1c0-0.7,0.5-1.1,1.1-1.1s1.1,0.5,1.1,1.1c0,0.6-0.4,1.1-1.1,1.1C347.4,248.3,347,247.8,347,247.1z"/>
</g>
<g>
	<path class="st0" d="M375,247.1c0-0.7,0.5-1.1,1.1-1.1s1.1,0.5,1.1,1.1c0,0.6-0.4,1.1-1.1,1.1C375.4,248.3,375,247.8,375,247.1z"/>
</g>
<g>
	<path class="st0" d="M404,247.1c0-0.7,0.5-1.1,1.1-1.1s1.1,0.5,1.1,1.1c0,0.6-0.4,1.1-1.1,1.1C404.4,248.3,404,247.8,404,247.1z"/>
</g>
<g>
	<path class="st0" d="M432,247.1c0-0.7,0.5-1.1,1.1-1.1s1.1,0.5,1.1,1.1c0,0.6-0.4,1.1-1.1,1.1C432.4,248.3,432,247.8,432,247.1z"/>
</g>
<g>
	<path class="st0" d="M461,247.1c0-0.7,0.5-1.1,1.1-1.1c0.6,0,1.1,0.5,1.1,1.1c0,0.6-0.4,1.1-1.1,1.1
		C461.4,248.3,461,247.8,461,247.1z"/>
</g>
<g>
	<path class="st0" d="M0,272.1c0-0.7,0.5-1.1,1.1-1.1s1.1,0.5,1.1,1.1c0,0.6-0.4,1.1-1.1,1.1C0.4,273.3,0,272.8,0,272.1z"/>
</g>
<g>
	<path class="st0" d="M28,272.1c0-0.7,0.5-1.1,1.1-1.1s1.1,0.5,1.1,1.1c0,0.6-0.4,1.1-1.1,1.1C28.4,273.3,28,272.8,28,272.1z"/>
</g>
<g>
	<path class="st0" d="M57,272.1c0-0.7,0.5-1.1,1.1-1.1s1.1,0.5,1.1,1.1c0,0.6-0.4,1.1-1.1,1.1C57.4,273.3,57,272.8,57,272.1z"/>
</g>
<g>
	<path class="st0" d="M85,272.1c0-0.7,0.5-1.1,1.1-1.1s1.1,0.5,1.1,1.1c0,0.6-0.4,1.1-1.1,1.1C85.4,273.3,85,272.8,85,272.1z"/>
</g>
<g>
	<path class="st0" d="M115,272.1c0-0.7,0.5-1.1,1.1-1.1s1.1,0.5,1.1,1.1c0,0.6-0.4,1.1-1.1,1.1C115.4,273.3,115,272.8,115,272.1z"/>
</g>
<g>
	<path class="st0" d="M143,272.1c0-0.7,0.5-1.1,1.1-1.1s1.1,0.5,1.1,1.1c0,0.6-0.4,1.1-1.1,1.1C143.4,273.3,143,272.8,143,272.1z"/>
</g>
<g>
	<path class="st0" d="M172,272.1c0-0.7,0.5-1.1,1.1-1.1s1.1,0.5,1.1,1.1c0,0.6-0.4,1.1-1.1,1.1C172.4,273.3,172,272.8,172,272.1z"/>
</g>
<g>
	<path class="st0" d="M200,272.1c0-0.7,0.5-1.1,1.1-1.1s1.1,0.5,1.1,1.1c0,0.6-0.4,1.1-1.1,1.1C200.4,273.3,200,272.8,200,272.1z"/>
</g>
<g>
	<path class="st0" d="M232,272.1c0-0.7,0.5-1.1,1.1-1.1s1.1,0.5,1.1,1.1c0,0.6-0.4,1.1-1.1,1.1C232.4,273.3,232,272.8,232,272.1z"/>
</g>
<g>
	<path class="st0" d="M260,272.1c0-0.7,0.5-1.1,1.1-1.1s1.1,0.5,1.1,1.1c0,0.6-0.4,1.1-1.1,1.1C260.4,273.3,260,272.8,260,272.1z"/>
</g>
<g>
	<path class="st0" d="M289,272.1c0-0.7,0.5-1.1,1.1-1.1s1.1,0.5,1.1,1.1c0,0.6-0.4,1.1-1.1,1.1C289.4,273.3,289,272.8,289,272.1z"/>
</g>
<g>
	<path class="st0" d="M317,272.1c0-0.7,0.5-1.1,1.1-1.1s1.1,0.5,1.1,1.1c0,0.6-0.4,1.1-1.1,1.1C317.4,273.3,317,272.8,317,272.1z"/>
</g>
<g>
	<path class="st0" d="M347,272.1c0-0.7,0.5-1.1,1.1-1.1s1.1,0.5,1.1,1.1c0,0.6-0.4,1.1-1.1,1.1C347.4,273.3,347,272.8,347,272.1z"/>
</g>
<g>
	<path class="st0" d="M375,272.1c0-0.7,0.5-1.1,1.1-1.1s1.1,0.5,1.1,1.1c0,0.6-0.4,1.1-1.1,1.1C375.4,273.3,375,272.8,375,272.1z"/>
</g>
<g>
	<path class="st0" d="M404,272.1c0-0.7,0.5-1.1,1.1-1.1s1.1,0.5,1.1,1.1c0,0.6-0.4,1.1-1.1,1.1C404.4,273.3,404,272.8,404,272.1z"/>
</g>
<g>
	<path class="st0" d="M432,272.1c0-0.7,0.5-1.1,1.1-1.1s1.1,0.5,1.1,1.1c0,0.6-0.4,1.1-1.1,1.1C432.4,273.3,432,272.8,432,272.1z"/>
</g>
<g>
	<path class="st0" d="M461,272.1c0-0.7,0.5-1.1,1.1-1.1c0.6,0,1.1,0.5,1.1,1.1c0,0.6-0.4,1.1-1.1,1.1
		C461.4,273.3,461,272.8,461,272.1z"/>
</g>
<g>
	<path class="st0" d="M0,296.1c0-0.7,0.5-1.1,1.1-1.1s1.1,0.5,1.1,1.1c0,0.6-0.4,1.1-1.1,1.1C0.4,297.3,0,296.8,0,296.1z"/>
</g>
<g>
	<path class="st0" d="M28,296.1c0-0.7,0.5-1.1,1.1-1.1s1.1,0.5,1.1,1.1c0,0.6-0.4,1.1-1.1,1.1C28.4,297.3,28,296.8,28,296.1z"/>
</g>
<g>
	<path class="st0" d="M57,296.1c0-0.7,0.5-1.1,1.1-1.1s1.1,0.5,1.1,1.1c0,0.6-0.4,1.1-1.1,1.1C57.4,297.3,57,296.8,57,296.1z"/>
</g>
<g>
	<path class="st0" d="M85,296.1c0-0.7,0.5-1.1,1.1-1.1s1.1,0.5,1.1,1.1c0,0.6-0.4,1.1-1.1,1.1C85.4,297.3,85,296.8,85,296.1z"/>
</g>
<g>
	<path class="st0" d="M115,296.1c0-0.7,0.5-1.1,1.1-1.1s1.1,0.5,1.1,1.1c0,0.6-0.4,1.1-1.1,1.1C115.4,297.3,115,296.8,115,296.1z"/>
</g>
<g>
	<path class="st0" d="M143,296.1c0-0.7,0.5-1.1,1.1-1.1s1.1,0.5,1.1,1.1c0,0.6-0.4,1.1-1.1,1.1C143.4,297.3,143,296.8,143,296.1z"/>
</g>
<g>
	<path class="st0" d="M172,296.1c0-0.7,0.5-1.1,1.1-1.1s1.1,0.5,1.1,1.1c0,0.6-0.4,1.1-1.1,1.1C172.4,297.3,172,296.8,172,296.1z"/>
</g>
<g>
	<path class="st0" d="M200,296.1c0-0.7,0.5-1.1,1.1-1.1s1.1,0.5,1.1,1.1c0,0.6-0.4,1.1-1.1,1.1C200.4,297.3,200,296.8,200,296.1z"/>
</g>
<g>
	<path class="st0" d="M232,296.1c0-0.7,0.5-1.1,1.1-1.1s1.1,0.5,1.1,1.1c0,0.6-0.4,1.1-1.1,1.1C232.4,297.3,232,296.8,232,296.1z"/>
</g>
<g>
	<path class="st0" d="M260,296.1c0-0.7,0.5-1.1,1.1-1.1s1.1,0.5,1.1,1.1c0,0.6-0.4,1.1-1.1,1.1C260.4,297.3,260,296.8,260,296.1z"/>
</g>
<g>
	<path class="st0" d="M289,296.1c0-0.7,0.5-1.1,1.1-1.1s1.1,0.5,1.1,1.1c0,0.6-0.4,1.1-1.1,1.1C289.4,297.3,289,296.8,289,296.1z"/>
</g>
<g>
	<path class="st0" d="M317,296.1c0-0.7,0.5-1.1,1.1-1.1s1.1,0.5,1.1,1.1c0,0.6-0.4,1.1-1.1,1.1C317.4,297.3,317,296.8,317,296.1z"/>
</g>
<g>
	<path class="st0" d="M347,296.1c0-0.7,0.5-1.1,1.1-1.1s1.1,0.5,1.1,1.1c0,0.6-0.4,1.1-1.1,1.1C347.4,297.3,347,296.8,347,296.1z"/>
</g>
<g>
	<path class="st0" d="M375,296.1c0-0.7,0.5-1.1,1.1-1.1s1.1,0.5,1.1,1.1c0,0.6-0.4,1.1-1.1,1.1C375.4,297.3,375,296.8,375,296.1z"/>
</g>
<g>
	<path class="st0" d="M404,296.1c0-0.7,0.5-1.1,1.1-1.1s1.1,0.5,1.1,1.1c0,0.6-0.4,1.1-1.1,1.1C404.4,297.3,404,296.8,404,296.1z"/>
</g>
<g>
	<path class="st0" d="M432,296.1c0-0.7,0.5-1.1,1.1-1.1s1.1,0.5,1.1,1.1c0,0.6-0.4,1.1-1.1,1.1C432.4,297.3,432,296.8,432,296.1z"/>
</g>
<g>
	<path class="st0" d="M461,296.1c0-0.7,0.5-1.1,1.1-1.1c0.6,0,1.1,0.5,1.1,1.1c0,0.6-0.4,1.1-1.1,1.1
		C461.4,297.3,461,296.8,461,296.1z"/>
</g>
<g>
	<path class="st0" d="M0,321.1c0-0.7,0.5-1.1,1.1-1.1s1.1,0.5,1.1,1.1c0,0.6-0.4,1.1-1.1,1.1C0.4,322.3,0,321.8,0,321.1z"/>
</g>
<g>
	<path class="st0" d="M28,321.1c0-0.7,0.5-1.1,1.1-1.1s1.1,0.5,1.1,1.1c0,0.6-0.4,1.1-1.1,1.1C28.4,322.3,28,321.8,28,321.1z"/>
</g>
<g>
	<path class="st0" d="M57,321.1c0-0.7,0.5-1.1,1.1-1.1s1.1,0.5,1.1,1.1c0,0.6-0.4,1.1-1.1,1.1C57.4,322.3,57,321.8,57,321.1z"/>
</g>
<g>
	<path class="st0" d="M85,321.1c0-0.7,0.5-1.1,1.1-1.1s1.1,0.5,1.1,1.1c0,0.6-0.4,1.1-1.1,1.1C85.4,322.3,85,321.8,85,321.1z"/>
</g>
<g>
	<path class="st0" d="M115,321.1c0-0.7,0.5-1.1,1.1-1.1s1.1,0.5,1.1,1.1c0,0.6-0.4,1.1-1.1,1.1C115.4,322.3,115,321.8,115,321.1z"/>
</g>
<g>
	<path class="st0" d="M143,321.1c0-0.7,0.5-1.1,1.1-1.1s1.1,0.5,1.1,1.1c0,0.6-0.4,1.1-1.1,1.1C143.4,322.3,143,321.8,143,321.1z"/>
</g>
<g>
	<path class="st0" d="M172,321.1c0-0.7,0.5-1.1,1.1-1.1s1.1,0.5,1.1,1.1c0,0.6-0.4,1.1-1.1,1.1C172.4,322.3,172,321.8,172,321.1z"/>
</g>
<g>
	<path class="st0" d="M200,321.1c0-0.7,0.5-1.1,1.1-1.1s1.1,0.5,1.1,1.1c0,0.6-0.4,1.1-1.1,1.1C200.4,322.3,200,321.8,200,321.1z"/>
</g>
<g>
	<path class="st0" d="M232,321.1c0-0.7,0.5-1.1,1.1-1.1s1.1,0.5,1.1,1.1c0,0.6-0.4,1.1-1.1,1.1C232.4,322.3,232,321.8,232,321.1z"/>
</g>
<g>
	<path class="st0" d="M260,321.1c0-0.7,0.5-1.1,1.1-1.1s1.1,0.5,1.1,1.1c0,0.6-0.4,1.1-1.1,1.1C260.4,322.3,260,321.8,260,321.1z"/>
</g>
<g>
	<path class="st0" d="M289,321.1c0-0.7,0.5-1.1,1.1-1.1s1.1,0.5,1.1,1.1c0,0.6-0.4,1.1-1.1,1.1C289.4,322.3,289,321.8,289,321.1z"/>
</g>
<g>
	<path class="st0" d="M317,321.1c0-0.7,0.5-1.1,1.1-1.1s1.1,0.5,1.1,1.1c0,0.6-0.4,1.1-1.1,1.1C317.4,322.3,317,321.8,317,321.1z"/>
</g>
<g>
	<path class="st0" d="M347,321.1c0-0.7,0.5-1.1,1.1-1.1s1.1,0.5,1.1,1.1c0,0.6-0.4,1.1-1.1,1.1C347.4,322.3,347,321.8,347,321.1z"/>
</g>
<g>
	<path class="st0" d="M375,321.1c0-0.7,0.5-1.1,1.1-1.1s1.1,0.5,1.1,1.1c0,0.6-0.4,1.1-1.1,1.1C375.4,322.3,375,321.8,375,321.1z"/>
</g>
<g>
	<path class="st0" d="M404,321.1c0-0.7,0.5-1.1,1.1-1.1s1.1,0.5,1.1,1.1c0,0.6-0.4,1.1-1.1,1.1C404.4,322.3,404,321.8,404,321.1z"/>
</g>
<g>
	<path class="st0" d="M432,321.1c0-0.7,0.5-1.1,1.1-1.1s1.1,0.5,1.1,1.1c0,0.6-0.4,1.1-1.1,1.1C432.4,322.3,432,321.8,432,321.1z"/>
</g>
<g>
	<path class="st0" d="M461,321.1c0-0.7,0.5-1.1,1.1-1.1c0.6,0,1.1,0.5,1.1,1.1c0,0.6-0.4,1.1-1.1,1.1
		C461.4,322.3,461,321.8,461,321.1z"/>
</g>
<g>
	<path class="st0" d="M0,344.1c0-0.7,0.5-1.1,1.1-1.1s1.1,0.5,1.1,1.1c0,0.6-0.4,1.1-1.1,1.1C0.4,345.3,0,344.8,0,344.1z"/>
</g>
<g>
	<path class="st0" d="M28,344.1c0-0.7,0.5-1.1,1.1-1.1s1.1,0.5,1.1,1.1c0,0.6-0.4,1.1-1.1,1.1C28.4,345.3,28,344.8,28,344.1z"/>
</g>
<g>
	<path class="st0" d="M57,344.1c0-0.7,0.5-1.1,1.1-1.1s1.1,0.5,1.1,1.1c0,0.6-0.4,1.1-1.1,1.1C57.4,345.3,57,344.8,57,344.1z"/>
</g>
<g>
	<path class="st0" d="M85,344.1c0-0.7,0.5-1.1,1.1-1.1s1.1,0.5,1.1,1.1c0,0.6-0.4,1.1-1.1,1.1C85.4,345.3,85,344.8,85,344.1z"/>
</g>
<g>
	<path class="st0" d="M115,344.1c0-0.7,0.5-1.1,1.1-1.1s1.1,0.5,1.1,1.1c0,0.6-0.4,1.1-1.1,1.1C115.4,345.3,115,344.8,115,344.1z"/>
</g>
<g>
	<path class="st0" d="M143,344.1c0-0.7,0.5-1.1,1.1-1.1s1.1,0.5,1.1,1.1c0,0.6-0.4,1.1-1.1,1.1C143.4,345.3,143,344.8,143,344.1z"/>
</g>
<g>
	<path class="st0" d="M172,344.1c0-0.7,0.5-1.1,1.1-1.1s1.1,0.5,1.1,1.1c0,0.6-0.4,1.1-1.1,1.1C172.4,345.3,172,344.8,172,344.1z"/>
</g>
<g>
	<path class="st0" d="M200,344.1c0-0.7,0.5-1.1,1.1-1.1s1.1,0.5,1.1,1.1c0,0.6-0.4,1.1-1.1,1.1C200.4,345.3,200,344.8,200,344.1z"/>
</g>
<g>
	<path class="st0" d="M232,344.1c0-0.7,0.5-1.1,1.1-1.1s1.1,0.5,1.1,1.1c0,0.6-0.4,1.1-1.1,1.1C232.4,345.3,232,344.8,232,344.1z"/>
</g>
<g>
	<path class="st0" d="M260,344.1c0-0.7,0.5-1.1,1.1-1.1s1.1,0.5,1.1,1.1c0,0.6-0.4,1.1-1.1,1.1C260.4,345.3,260,344.8,260,344.1z"/>
</g>
<g>
	<path class="st0" d="M289,344.1c0-0.7,0.5-1.1,1.1-1.1s1.1,0.5,1.1,1.1c0,0.6-0.4,1.1-1.1,1.1C289.4,345.3,289,344.8,289,344.1z"/>
</g>
<g>
	<path class="st0" d="M317,344.1c0-0.7,0.5-1.1,1.1-1.1s1.1,0.5,1.1,1.1c0,0.6-0.4,1.1-1.1,1.1C317.4,345.3,317,344.8,317,344.1z"/>
</g>
<g>
	<path class="st0" d="M347,344.1c0-0.7,0.5-1.1,1.1-1.1s1.1,0.5,1.1,1.1c0,0.6-0.4,1.1-1.1,1.1C347.4,345.3,347,344.8,347,344.1z"/>
</g>
<g>
	<path class="st0" d="M375,344.1c0-0.7,0.5-1.1,1.1-1.1s1.1,0.5,1.1,1.1c0,0.6-0.4,1.1-1.1,1.1C375.4,345.3,375,344.8,375,344.1z"/>
</g>
<g>
	<path class="st0" d="M404,344.1c0-0.7,0.5-1.1,1.1-1.1s1.1,0.5,1.1,1.1c0,0.6-0.4,1.1-1.1,1.1C404.4,345.3,404,344.8,404,344.1z"/>
</g>
<g>
	<path class="st0" d="M432,344.1c0-0.7,0.5-1.1,1.1-1.1s1.1,0.5,1.1,1.1c0,0.6-0.4,1.1-1.1,1.1C432.4,345.3,432,344.8,432,344.1z"/>
</g>
<g>
	<path class="st0" d="M461,344.1c0-0.7,0.5-1.1,1.1-1.1c0.6,0,1.1,0.5,1.1,1.1c0,0.6-0.4,1.1-1.1,1.1
		C461.4,345.3,461,344.8,461,344.1z"/>
</g>
<g>
	<path class="st0" d="M0,369.1c0-0.7,0.5-1.1,1.1-1.1s1.1,0.5,1.1,1.1c0,0.6-0.4,1.1-1.1,1.1C0.4,370.3,0,369.8,0,369.1z"/>
</g>
<g>
	<path class="st0" d="M28,369.1c0-0.7,0.5-1.1,1.1-1.1s1.1,0.5,1.1,1.1c0,0.6-0.4,1.1-1.1,1.1C28.4,370.3,28,369.8,28,369.1z"/>
</g>
<g>
	<path class="st0" d="M57,369.1c0-0.7,0.5-1.1,1.1-1.1s1.1,0.5,1.1,1.1c0,0.6-0.4,1.1-1.1,1.1C57.4,370.3,57,369.8,57,369.1z"/>
</g>
<g>
	<path class="st0" d="M85,369.1c0-0.7,0.5-1.1,1.1-1.1s1.1,0.5,1.1,1.1c0,0.6-0.4,1.1-1.1,1.1C85.4,370.3,85,369.8,85,369.1z"/>
</g>
<g>
	<path class="st0" d="M115,369.1c0-0.7,0.5-1.1,1.1-1.1s1.1,0.5,1.1,1.1c0,0.6-0.4,1.1-1.1,1.1C115.4,370.3,115,369.8,115,369.1z"/>
</g>
<g>
	<path class="st0" d="M143,369.1c0-0.7,0.5-1.1,1.1-1.1s1.1,0.5,1.1,1.1c0,0.6-0.4,1.1-1.1,1.1C143.4,370.3,143,369.8,143,369.1z"/>
</g>
<g>
	<path class="st0" d="M172,369.1c0-0.7,0.5-1.1,1.1-1.1s1.1,0.5,1.1,1.1c0,0.6-0.4,1.1-1.1,1.1C172.4,370.3,172,369.8,172,369.1z"/>
</g>
<g>
	<path class="st0" d="M200,369.1c0-0.7,0.5-1.1,1.1-1.1s1.1,0.5,1.1,1.1c0,0.6-0.4,1.1-1.1,1.1C200.4,370.3,200,369.8,200,369.1z"/>
</g>
<g>
	<path class="st0" d="M232,369.1c0-0.7,0.5-1.1,1.1-1.1s1.1,0.5,1.1,1.1c0,0.6-0.4,1.1-1.1,1.1C232.4,370.3,232,369.8,232,369.1z"/>
</g>
<g>
	<path class="st0" d="M260,369.1c0-0.7,0.5-1.1,1.1-1.1s1.1,0.5,1.1,1.1c0,0.6-0.4,1.1-1.1,1.1C260.4,370.3,260,369.8,260,369.1z"/>
</g>
<g>
	<path class="st0" d="M289,369.1c0-0.7,0.5-1.1,1.1-1.1s1.1,0.5,1.1,1.1c0,0.6-0.4,1.1-1.1,1.1C289.4,370.3,289,369.8,289,369.1z"/>
</g>
<g>
	<path class="st0" d="M317,369.1c0-0.7,0.5-1.1,1.1-1.1s1.1,0.5,1.1,1.1c0,0.6-0.4,1.1-1.1,1.1C317.4,370.3,317,369.8,317,369.1z"/>
</g>
<g>
	<path class="st0" d="M347,369.1c0-0.7,0.5-1.1,1.1-1.1s1.1,0.5,1.1,1.1c0,0.6-0.4,1.1-1.1,1.1C347.4,370.3,347,369.8,347,369.1z"/>
</g>
<g>
	<path class="st0" d="M375,369.1c0-0.7,0.5-1.1,1.1-1.1s1.1,0.5,1.1,1.1c0,0.6-0.4,1.1-1.1,1.1C375.4,370.3,375,369.8,375,369.1z"/>
</g>
<g>
	<path class="st0" d="M404,369.1c0-0.7,0.5-1.1,1.1-1.1s1.1,0.5,1.1,1.1c0,0.6-0.4,1.1-1.1,1.1C404.4,370.3,404,369.8,404,369.1z"/>
</g>
<g>
	<path class="st0" d="M432,369.1c0-0.7,0.5-1.1,1.1-1.1s1.1,0.5,1.1,1.1c0,0.6-0.4,1.1-1.1,1.1C432.4,370.3,432,369.8,432,369.1z"/>
</g>
<g>
	<path class="st0" d="M461,369.1c0-0.7,0.5-1.1,1.1-1.1c0.6,0,1.1,0.5,1.1,1.1c0,0.6-0.4,1.1-1.1,1.1
		C461.4,370.3,461,369.8,461,369.1z"/>
</g>
<g>
	<path class="st0" d="M0,393.1c0-0.7,0.5-1.1,1.1-1.1s1.1,0.5,1.1,1.1c0,0.6-0.4,1.1-1.1,1.1C0.4,394.3,0,393.8,0,393.1z"/>
</g>
<g>
	<path class="st0" d="M28,393.1c0-0.7,0.5-1.1,1.1-1.1s1.1,0.5,1.1,1.1c0,0.6-0.4,1.1-1.1,1.1C28.4,394.3,28,393.8,28,393.1z"/>
</g>
<g>
	<path class="st0" d="M57,393.1c0-0.7,0.5-1.1,1.1-1.1s1.1,0.5,1.1,1.1c0,0.6-0.4,1.1-1.1,1.1C57.4,394.3,57,393.8,57,393.1z"/>
</g>
<g>
	<path class="st0" d="M85,393.1c0-0.7,0.5-1.1,1.1-1.1s1.1,0.5,1.1,1.1c0,0.6-0.4,1.1-1.1,1.1C85.4,394.3,85,393.8,85,393.1z"/>
</g>
<g>
	<path class="st0" d="M115,393.1c0-0.7,0.5-1.1,1.1-1.1s1.1,0.5,1.1,1.1c0,0.6-0.4,1.1-1.1,1.1C115.4,394.3,115,393.8,115,393.1z"/>
</g>
<g>
	<path class="st0" d="M143,393.1c0-0.7,0.5-1.1,1.1-1.1s1.1,0.5,1.1,1.1c0,0.6-0.4,1.1-1.1,1.1C143.4,394.3,143,393.8,143,393.1z"/>
</g>
<g>
	<path class="st0" d="M172,393.1c0-0.7,0.5-1.1,1.1-1.1s1.1,0.5,1.1,1.1c0,0.6-0.4,1.1-1.1,1.1C172.4,394.3,172,393.8,172,393.1z"/>
</g>
<g>
	<path class="st0" d="M200,393.1c0-0.7,0.5-1.1,1.1-1.1s1.1,0.5,1.1,1.1c0,0.6-0.4,1.1-1.1,1.1C200.4,394.3,200,393.8,200,393.1z"/>
</g>
<g>
	<path class="st0" d="M232,393.1c0-0.7,0.5-1.1,1.1-1.1s1.1,0.5,1.1,1.1c0,0.6-0.4,1.1-1.1,1.1C232.4,394.3,232,393.8,232,393.1z"/>
</g>
<g>
	<path class="st0" d="M260,393.1c0-0.7,0.5-1.1,1.1-1.1s1.1,0.5,1.1,1.1c0,0.6-0.4,1.1-1.1,1.1C260.4,394.3,260,393.8,260,393.1z"/>
</g>
<g>
	<path class="st0" d="M289,393.1c0-0.7,0.5-1.1,1.1-1.1s1.1,0.5,1.1,1.1c0,0.6-0.4,1.1-1.1,1.1C289.4,394.3,289,393.8,289,393.1z"/>
</g>
<g>
	<path class="st0" d="M317,393.1c0-0.7,0.5-1.1,1.1-1.1s1.1,0.5,1.1,1.1c0,0.6-0.4,1.1-1.1,1.1C317.4,394.3,317,393.8,317,393.1z"/>
</g>
<g>
	<path class="st0" d="M347,393.1c0-0.7,0.5-1.1,1.1-1.1s1.1,0.5,1.1,1.1c0,0.6-0.4,1.1-1.1,1.1C347.4,394.3,347,393.8,347,393.1z"/>
</g>
<g>
	<path class="st0" d="M375,393.1c0-0.7,0.5-1.1,1.1-1.1s1.1,0.5,1.1,1.1c0,0.6-0.4,1.1-1.1,1.1C375.4,394.3,375,393.8,375,393.1z"/>
</g>
<g>
	<path class="st0" d="M404,393.1c0-0.7,0.5-1.1,1.1-1.1s1.1,0.5,1.1,1.1c0,0.6-0.4,1.1-1.1,1.1C404.4,394.3,404,393.8,404,393.1z"/>
</g>
<g>
	<path class="st0" d="M432,393.1c0-0.7,0.5-1.1,1.1-1.1s1.1,0.5,1.1,1.1c0,0.6-0.4,1.1-1.1,1.1C432.4,394.3,432,393.8,432,393.1z"/>
</g>
<g>
	<path class="st0" d="M461,393.1c0-0.7,0.5-1.1,1.1-1.1c0.6,0,1.1,0.5,1.1,1.1c0,0.6-0.4,1.1-1.1,1.1
		C461.4,394.3,461,393.8,461,393.1z"/>
</g>
<g>
	<path class="st0" d="M0,418.1c0-0.7,0.5-1.1,1.1-1.1s1.1,0.5,1.1,1.1c0,0.6-0.4,1.1-1.1,1.1C0.4,419.3,0,418.8,0,418.1z"/>
</g>
<g>
	<path class="st0" d="M28,418.1c0-0.7,0.5-1.1,1.1-1.1s1.1,0.5,1.1,1.1c0,0.6-0.4,1.1-1.1,1.1C28.4,419.3,28,418.8,28,418.1z"/>
</g>
<g>
	<path class="st0" d="M57,418.1c0-0.7,0.5-1.1,1.1-1.1s1.1,0.5,1.1,1.1c0,0.6-0.4,1.1-1.1,1.1C57.4,419.3,57,418.8,57,418.1z"/>
</g>
<g>
	<path class="st0" d="M85,418.1c0-0.7,0.5-1.1,1.1-1.1s1.1,0.5,1.1,1.1c0,0.6-0.4,1.1-1.1,1.1C85.4,419.3,85,418.8,85,418.1z"/>
</g>
<g>
	<path class="st0" d="M115,418.1c0-0.7,0.5-1.1,1.1-1.1s1.1,0.5,1.1,1.1c0,0.6-0.4,1.1-1.1,1.1C115.4,419.3,115,418.8,115,418.1z"/>
</g>
<g>
	<path class="st0" d="M143,418.1c0-0.7,0.5-1.1,1.1-1.1s1.1,0.5,1.1,1.1c0,0.6-0.4,1.1-1.1,1.1C143.4,419.3,143,418.8,143,418.1z"/>
</g>
<g>
	<path class="st0" d="M172,418.1c0-0.7,0.5-1.1,1.1-1.1s1.1,0.5,1.1,1.1c0,0.6-0.4,1.1-1.1,1.1C172.4,419.3,172,418.8,172,418.1z"/>
</g>
<g>
	<path class="st0" d="M200,418.1c0-0.7,0.5-1.1,1.1-1.1s1.1,0.5,1.1,1.1c0,0.6-0.4,1.1-1.1,1.1C200.4,419.3,200,418.8,200,418.1z"/>
</g>
<g>
	<path class="st0" d="M232,418.1c0-0.7,0.5-1.1,1.1-1.1s1.1,0.5,1.1,1.1c0,0.6-0.4,1.1-1.1,1.1C232.4,419.3,232,418.8,232,418.1z"/>
</g>
<g>
	<path class="st0" d="M260,418.1c0-0.7,0.5-1.1,1.1-1.1s1.1,0.5,1.1,1.1c0,0.6-0.4,1.1-1.1,1.1C260.4,419.3,260,418.8,260,418.1z"/>
</g>
<g>
	<path class="st0" d="M289,418.1c0-0.7,0.5-1.1,1.1-1.1s1.1,0.5,1.1,1.1c0,0.6-0.4,1.1-1.1,1.1C289.4,419.3,289,418.8,289,418.1z"/>
</g>
<g>
	<path class="st0" d="M317,418.1c0-0.7,0.5-1.1,1.1-1.1s1.1,0.5,1.1,1.1c0,0.6-0.4,1.1-1.1,1.1C317.4,419.3,317,418.8,317,418.1z"/>
</g>
<g>
	<path class="st0" d="M347,418.1c0-0.7,0.5-1.1,1.1-1.1s1.1,0.5,1.1,1.1c0,0.6-0.4,1.1-1.1,1.1C347.4,419.3,347,418.8,347,418.1z"/>
</g>
<g>
	<path class="st0" d="M375,418.1c0-0.7,0.5-1.1,1.1-1.1s1.1,0.5,1.1,1.1c0,0.6-0.4,1.1-1.1,1.1C375.4,419.3,375,418.8,375,418.1z"/>
</g>
<g>
	<path class="st0" d="M404,418.1c0-0.7,0.5-1.1,1.1-1.1s1.1,0.5,1.1,1.1c0,0.6-0.4,1.1-1.1,1.1C404.4,419.3,404,418.8,404,418.1z"/>
</g>
<g>
	<path class="st0" d="M432,418.1c0-0.7,0.5-1.1,1.1-1.1s1.1,0.5,1.1,1.1c0,0.6-0.4,1.1-1.1,1.1C432.4,419.3,432,418.8,432,418.1z"/>
</g>
<g>
	<path class="st0" d="M461,418.1c0-0.7,0.5-1.1,1.1-1.1c0.6,0,1.1,0.5,1.1,1.1c0,0.6-0.4,1.1-1.1,1.1
		C461.4,419.3,461,418.8,461,418.1z"/>
</g>
<g>
	<path class="st0" d="M0,443.1c0-0.7,0.5-1.1,1.1-1.1s1.1,0.5,1.1,1.1c0,0.6-0.4,1.1-1.1,1.1C0.4,444.3,0,443.8,0,443.1z"/>
</g>
<g>
	<path class="st0" d="M28,443.1c0-0.7,0.5-1.1,1.1-1.1s1.1,0.5,1.1,1.1c0,0.6-0.4,1.1-1.1,1.1C28.4,444.3,28,443.8,28,443.1z"/>
</g>
<g>
	<path class="st0" d="M57,443.1c0-0.7,0.5-1.1,1.1-1.1s1.1,0.5,1.1,1.1c0,0.6-0.4,1.1-1.1,1.1C57.4,444.3,57,443.8,57,443.1z"/>
</g>
<g>
	<path class="st0" d="M85,443.1c0-0.7,0.5-1.1,1.1-1.1s1.1,0.5,1.1,1.1c0,0.6-0.4,1.1-1.1,1.1C85.4,444.3,85,443.8,85,443.1z"/>
</g>
<g>
	<path class="st0" d="M115,443.1c0-0.7,0.5-1.1,1.1-1.1s1.1,0.5,1.1,1.1c0,0.6-0.4,1.1-1.1,1.1C115.4,444.3,115,443.8,115,443.1z"/>
</g>
<g>
	<path class="st0" d="M143,443.1c0-0.7,0.5-1.1,1.1-1.1s1.1,0.5,1.1,1.1c0,0.6-0.4,1.1-1.1,1.1C143.4,444.3,143,443.8,143,443.1z"/>
</g>
<g>
	<path class="st0" d="M172,443.1c0-0.7,0.5-1.1,1.1-1.1s1.1,0.5,1.1,1.1c0,0.6-0.4,1.1-1.1,1.1C172.4,444.3,172,443.8,172,443.1z"/>
</g>
<g>
	<path class="st0" d="M200,443.1c0-0.7,0.5-1.1,1.1-1.1s1.1,0.5,1.1,1.1c0,0.6-0.4,1.1-1.1,1.1C200.4,444.3,200,443.8,200,443.1z"/>
</g>
<g>
	<path class="st0" d="M232,443.1c0-0.7,0.5-1.1,1.1-1.1s1.1,0.5,1.1,1.1c0,0.6-0.4,1.1-1.1,1.1C232.4,444.3,232,443.8,232,443.1z"/>
</g>
<g>
	<path class="st0" d="M260,443.1c0-0.7,0.5-1.1,1.1-1.1s1.1,0.5,1.1,1.1c0,0.6-0.4,1.1-1.1,1.1C260.4,444.3,260,443.8,260,443.1z"/>
</g>
<g>
	<path class="st0" d="M289,443.1c0-0.7,0.5-1.1,1.1-1.1s1.1,0.5,1.1,1.1c0,0.6-0.4,1.1-1.1,1.1C289.4,444.3,289,443.8,289,443.1z"/>
</g>
<g>
	<path class="st0" d="M317,443.1c0-0.7,0.5-1.1,1.1-1.1s1.1,0.5,1.1,1.1c0,0.6-0.4,1.1-1.1,1.1C317.4,444.3,317,443.8,317,443.1z"/>
</g>
<g>
	<path class="st0" d="M347,443.1c0-0.7,0.5-1.1,1.1-1.1s1.1,0.5,1.1,1.1c0,0.6-0.4,1.1-1.1,1.1C347.4,444.3,347,443.8,347,443.1z"/>
</g>
<g>
	<path class="st0" d="M375,443.1c0-0.7,0.5-1.1,1.1-1.1s1.1,0.5,1.1,1.1c0,0.6-0.4,1.1-1.1,1.1C375.4,444.3,375,443.8,375,443.1z"/>
</g>
<g>
	<path class="st0" d="M404,443.1c0-0.7,0.5-1.1,1.1-1.1s1.1,0.5,1.1,1.1c0,0.6-0.4,1.1-1.1,1.1C404.4,444.3,404,443.8,404,443.1z"/>
</g>
<g>
	<path class="st0" d="M432,443.1c0-0.7,0.5-1.1,1.1-1.1s1.1,0.5,1.1,1.1c0,0.6-0.4,1.1-1.1,1.1C432.4,444.3,432,443.8,432,443.1z"/>
</g>
<g>
	<path class="st0" d="M461,443.1c0-0.7,0.5-1.1,1.1-1.1c0.6,0,1.1,0.5,1.1,1.1c0,0.6-0.4,1.1-1.1,1.1
		C461.4,444.3,461,443.8,461,443.1z"/>
</g>
<g>
	<path class="st0" d="M0,468.1c0-0.7,0.5-1.1,1.1-1.1s1.1,0.5,1.1,1.1c0,0.6-0.4,1.1-1.1,1.1C0.4,469.3,0,468.8,0,468.1z"/>
</g>
<g>
	<path class="st0" d="M28,468.1c0-0.7,0.5-1.1,1.1-1.1s1.1,0.5,1.1,1.1c0,0.6-0.4,1.1-1.1,1.1C28.4,469.3,28,468.8,28,468.1z"/>
</g>
<g>
	<path class="st0" d="M57,468.1c0-0.7,0.5-1.1,1.1-1.1s1.1,0.5,1.1,1.1c0,0.6-0.4,1.1-1.1,1.1C57.4,469.3,57,468.8,57,468.1z"/>
</g>
<g>
	<path class="st0" d="M85,468.1c0-0.7,0.5-1.1,1.1-1.1s1.1,0.5,1.1,1.1c0,0.6-0.4,1.1-1.1,1.1C85.4,469.3,85,468.8,85,468.1z"/>
</g>
<g>
	<path class="st0" d="M115,468.1c0-0.7,0.5-1.1,1.1-1.1s1.1,0.5,1.1,1.1c0,0.6-0.4,1.1-1.1,1.1C115.4,469.3,115,468.8,115,468.1z"/>
</g>
<g>
	<path class="st0" d="M143,468.1c0-0.7,0.5-1.1,1.1-1.1s1.1,0.5,1.1,1.1c0,0.6-0.4,1.1-1.1,1.1C143.4,469.3,143,468.8,143,468.1z"/>
</g>
<g>
	<path class="st0" d="M172,468.1c0-0.7,0.5-1.1,1.1-1.1s1.1,0.5,1.1,1.1c0,0.6-0.4,1.1-1.1,1.1C172.4,469.3,172,468.8,172,468.1z"/>
</g>
<g>
	<path class="st0" d="M200,468.1c0-0.7,0.5-1.1,1.1-1.1s1.1,0.5,1.1,1.1c0,0.6-0.4,1.1-1.1,1.1C200.4,469.3,200,468.8,200,468.1z"/>
</g>
<g>
	<path class="st0" d="M232,468.1c0-0.7,0.5-1.1,1.1-1.1s1.1,0.5,1.1,1.1c0,0.6-0.4,1.1-1.1,1.1C232.4,469.3,232,468.8,232,468.1z"/>
</g>
<g>
	<path class="st0" d="M260,468.1c0-0.7,0.5-1.1,1.1-1.1s1.1,0.5,1.1,1.1c0,0.6-0.4,1.1-1.1,1.1C260.4,469.3,260,468.8,260,468.1z"/>
</g>
<g>
	<path class="st0" d="M289,468.1c0-0.7,0.5-1.1,1.1-1.1s1.1,0.5,1.1,1.1c0,0.6-0.4,1.1-1.1,1.1C289.4,469.3,289,468.8,289,468.1z"/>
</g>
<g>
	<path class="st0" d="M317,468.1c0-0.7,0.5-1.1,1.1-1.1s1.1,0.5,1.1,1.1c0,0.6-0.4,1.1-1.1,1.1C317.4,469.3,317,468.8,317,468.1z"/>
</g>
<g>
	<path class="st0" d="M347,468.1c0-0.7,0.5-1.1,1.1-1.1s1.1,0.5,1.1,1.1c0,0.6-0.4,1.1-1.1,1.1C347.4,469.3,347,468.8,347,468.1z"/>
</g>
<g>
	<path class="st0" d="M375,468.1c0-0.7,0.5-1.1,1.1-1.1s1.1,0.5,1.1,1.1c0,0.6-0.4,1.1-1.1,1.1C375.4,469.3,375,468.8,375,468.1z"/>
</g>
<g>
	<path class="st0" d="M404,468.1c0-0.7,0.5-1.1,1.1-1.1s1.1,0.5,1.1,1.1c0,0.6-0.4,1.1-1.1,1.1C404.4,469.3,404,468.8,404,468.1z"/>
</g>
<g>
	<path class="st0" d="M432,468.1c0-0.7,0.5-1.1,1.1-1.1s1.1,0.5,1.1,1.1c0,0.6-0.4,1.1-1.1,1.1C432.4,469.3,432,468.8,432,468.1z"/>
</g>
<g>
	<path class="st0" d="M461,468.1c0-0.7,0.5-1.1,1.1-1.1c0.6,0,1.1,0.5,1.1,1.1c0,0.6-0.4,1.1-1.1,1.1
		C461.4,469.3,461,468.8,461,468.1z"/>
</g>
</svg>
