<?xml version="1.0" encoding="utf-8"?>
<!-- Generator: Adobe Illustrator 23.0.1, SVG Export Plug-In . SVG Version: 6.00 Build 0)  -->
<svg version="1.1" id="Layer_1" xmlns="http://www.w3.org/2000/svg" xmlns:xlink="http://www.w3.org/1999/xlink" x="0px" y="0px"
	 viewBox="0 0 30.1 27.3" style="enable-background:new 0 0 30.1 27.3;" xml:space="preserve">
<style type="text/css">
	.st0{fill:#BBBBBB;}
	.st1{display:none;}
	.st2{display:inline;fill:#BBBBBB;}
</style>
<g>
	<path class="st0" d="M0,1.1C0,0.5,0.5,0,1.1,0s1.1,0.5,1.1,1.1c0,0.6-0.4,1.1-1.1,1.1C0.4,2.3,0,1.8,0,1.1z"/>
</g>
<g class="st1">
	<path class="st2" d="M28,1.1C28,0.5,28.5,0,29.1,0s1.1,0.5,1.1,1.1c0,0.6-0.4,1.1-1.1,1.1C28.4,2.3,28,1.8,28,1.1z"/>
</g>
<g class="st1">
	<path class="st2" d="M0,26.1C0,25.5,0.5,25,1.1,25s1.1,0.5,1.1,1.1c0,0.6-0.4,1.1-1.1,1.1C0.4,27.3,0,26.8,0,26.1z"/>
</g>
<g class="st1">
	<path class="st2" d="M28,26.1c0-0.7,0.5-1.1,1.1-1.1s1.1,0.5,1.1,1.1c0,0.6-0.4,1.1-1.1,1.1C28.4,27.3,28,26.8,28,26.1z"/>
</g>
</svg>
